<svg width="20" height="20" viewBox="0 0 20 20" fill="none" xmlns="http://www.w3.org/2000/svg">
<path d="M17.6751 13.2417C17.1449 14.4954 16.3157 15.6002 15.2599 16.4594C14.2042 17.3187 12.954 17.9062 11.6187 18.1707C10.2835 18.4351 8.90374 18.3685 7.60017 17.9765C6.29661 17.5845 5.10891 16.8792 4.1409 15.9222C3.1729 14.9652 2.45406 13.7856 2.04725 12.4866C1.64043 11.1876 1.55802 9.80874 1.80722 8.47053C2.05641 7.13232 2.62963 5.87553 3.47676 4.81003C4.32388 3.74453 5.41912 2.90277 6.66672 2.35834" stroke="#142367" stroke-width="2" stroke-linecap="round" stroke-linejoin="round"/>
<path d="M18.3333 10C18.3333 8.90567 18.1178 7.82204 17.699 6.81099C17.2802 5.79994 16.6664 4.88129 15.8926 4.10746C15.1187 3.33364 14.2001 2.71981 13.189 2.30102C12.178 1.88224 11.0943 1.66669 10 1.66669V10H18.3333Z" stroke="#142367" stroke-width="2" stroke-linecap="round" stroke-linejoin="round"/>
</svg>
