<svg width="50" height="50" viewBox="0 0 50 50" fill="none" xmlns="http://www.w3.org/2000/svg">
<path d="M47.9726 27.8459C47.7934 27.8459 47.6215 27.7748 47.4948 27.648C47.3681 27.5213 47.2969 27.3495 47.2969 27.1703V22.8297C47.2969 22.6505 47.3681 22.4787 47.4948 22.352C47.6215 22.2252 47.7934 22.1541 47.9726 22.1541C48.1518 22.1541 48.3236 22.2252 48.4503 22.352C48.577 22.4787 48.6482 22.6505 48.6482 22.8297V27.1703C48.6482 27.3495 48.577 27.5213 48.4503 27.648C48.3236 27.7748 48.1518 27.8459 47.9726 27.8459Z" fill="#3048B5"/>
<path d="M41.2548 27.8459C41.0756 27.8459 40.9037 27.7748 40.777 27.648C40.6503 27.5213 40.5791 27.3495 40.5791 27.1703V22.8297C40.5791 22.6505 40.6503 22.4787 40.777 22.352C40.9037 22.2252 41.0756 22.1541 41.2548 22.1541C41.434 22.1541 41.6058 22.2252 41.7326 22.352C41.8593 22.4787 41.9305 22.6505 41.9305 22.8297V27.1703C41.9305 27.3495 41.8593 27.5213 41.7326 27.648C41.6058 27.7748 41.434 27.8459 41.2548 27.8459Z" fill="#3048B5"/>
<path d="M44.6132 30.8608C44.434 30.8608 44.2621 30.7896 44.1354 30.6629C44.0087 30.5362 43.9375 30.3643 43.9375 30.1851V19.8148C43.9375 19.6356 44.0087 19.4638 44.1354 19.3371C44.2621 19.2103 44.434 19.1392 44.6132 19.1392C44.7924 19.1392 44.9642 19.2103 45.091 19.3371C45.2177 19.4638 45.2889 19.6356 45.2889 19.8148V30.1851C45.2889 30.3643 45.2177 30.5362 45.091 30.6629C44.9642 30.7896 44.7924 30.8608 44.6132 30.8608Z" fill="#3048B5"/>
<path d="M19.9608 27.8459C19.7816 27.8459 19.6098 27.7748 19.4831 27.648C19.3563 27.5213 19.2852 27.3495 19.2852 27.1703V22.8297C19.2852 22.6505 19.3563 22.4787 19.4831 22.352C19.6098 22.2252 19.7816 22.1541 19.9608 22.1541C20.14 22.1541 20.3119 22.2252 20.4386 22.352C20.5653 22.4787 20.6365 22.6505 20.6365 22.8297V27.1703C20.6365 27.3495 20.5653 27.5213 20.4386 27.648C20.3119 27.7748 20.14 27.8459 19.9608 27.8459Z" fill="#3048B5"/>
<path d="M34.536 35.8055C34.3568 35.8055 34.185 35.7343 34.0583 35.6076C33.9315 35.4809 33.8604 35.309 33.8604 35.1298V14.8704C33.8604 14.6912 33.9315 14.5193 34.0583 14.3926C34.185 14.2659 34.3568 14.1947 34.536 14.1947C34.7152 14.1947 34.8871 14.2659 35.0138 14.3926C35.1405 14.5193 35.2117 14.6912 35.2117 14.8704V35.1298C35.2117 35.309 35.1405 35.4809 35.0138 35.6076C34.8871 35.7343 34.7152 35.8055 34.536 35.8055Z" fill="#3048B5"/>
<path d="M37.8944 33.6345C37.7152 33.6345 37.5434 33.5633 37.4167 33.4366C37.2899 33.3099 37.2188 33.138 37.2188 32.9588V17.0413C37.2188 16.8621 37.2899 16.6902 37.4167 16.5635C37.5434 16.4368 37.7152 16.3656 37.8944 16.3656C38.0736 16.3656 38.2455 16.4368 38.3722 16.5635C38.4989 16.6902 38.5701 16.8621 38.5701 17.0413V32.9588C38.5701 33.138 38.4989 33.3099 38.3722 33.4366C38.2455 33.5633 38.0736 33.6345 37.8944 33.6345Z" fill="#3048B5"/>
<path d="M26.6796 35.8055C26.5004 35.8055 26.3285 35.7343 26.2018 35.6076C26.0751 35.4809 26.0039 35.309 26.0039 35.1298V14.8704C26.0039 14.6912 26.0751 14.5193 26.2018 14.3926C26.3285 14.2659 26.5004 14.1947 26.6796 14.1947C26.8588 14.1947 27.0306 14.2659 27.1574 14.3926C27.2841 14.5193 27.3553 14.6912 27.3553 14.8704V35.1298C27.3553 35.309 27.2841 35.4809 27.1574 35.6076C27.0306 35.7343 26.8588 35.8055 26.6796 35.8055Z" fill="#3048B5"/>
<path d="M23.3202 33.6345C23.141 33.6345 22.9691 33.5633 22.8424 33.4366C22.7157 33.3099 22.6445 33.138 22.6445 32.9588V17.0413C22.6445 16.8621 22.7157 16.6902 22.8424 16.5635C22.9691 16.4368 23.141 16.3656 23.3202 16.3656C23.4994 16.3656 23.6713 16.4368 23.798 16.5635C23.9247 16.6902 23.9959 16.8621 23.9959 17.0413V32.9588C23.9959 33.138 23.9247 33.3099 23.798 33.4366C23.6713 33.5633 23.4994 33.6345 23.3202 33.6345Z" fill="#3048B5"/>
<path d="M30.6083 40.5089C30.4291 40.5089 30.2572 40.4377 30.1305 40.311C30.0038 40.1843 29.9326 40.0124 29.9326 39.8332V10.167C29.9326 9.98781 30.0038 9.81595 30.1305 9.68923C30.2572 9.56252 30.4291 9.49133 30.6083 9.49133C30.7875 9.49133 30.9594 9.56252 31.0861 9.68923C31.2128 9.81595 31.284 9.98781 31.284 10.167V39.8332C31.284 40.0124 31.2128 40.1843 31.0861 40.311C30.9594 40.4377 30.7875 40.5089 30.6083 40.5089Z" fill="#3048B5"/>
<path d="M6.06229 17.7648C6.06229 17.3916 5.75978 17.0891 5.38661 17.0891C5.01345 17.0891 4.71094 17.3916 4.71094 17.7648V32.2324C4.71094 32.6055 5.01345 32.908 5.38661 32.908C5.75978 32.908 6.06229 32.6055 6.06229 32.2324V17.7648Z" fill="#3048B5"/>
<path d="M2.02724 29.7155C1.84804 29.7155 1.67618 29.6443 1.54946 29.5176C1.42275 29.3909 1.35156 29.219 1.35156 29.0398V20.9601C1.35156 20.7809 1.42275 20.609 1.54946 20.4823C1.67618 20.3556 1.84804 20.2844 2.02724 20.2844C2.20644 20.2844 2.3783 20.3556 2.50501 20.4823C2.63173 20.609 2.70291 20.7809 2.70291 20.9601V29.0398C2.70291 29.219 2.63173 29.3909 2.50501 29.5176C2.3783 29.6443 2.20644 29.7155 2.02724 29.7155Z" fill="#3048B5"/>
<path d="M13.9187 17.7682C13.9187 17.395 13.6162 17.0925 13.2431 17.0925C12.8699 17.0925 12.5674 17.395 12.5674 17.7682V32.2358C12.5674 32.6089 12.8699 32.9114 13.2431 32.9114C13.6162 32.9114 13.9187 32.6089 13.9187 32.2358V17.7682Z" fill="#3048B5"/>
<path d="M16.6015 29.7155C16.4223 29.7155 16.2504 29.6443 16.1237 29.5176C15.997 29.3909 15.9258 29.219 15.9258 29.0398V20.9601C15.9258 20.7809 15.997 20.609 16.1237 20.4823C16.2504 20.3556 16.4223 20.2844 16.6015 20.2844C16.7807 20.2844 16.9525 20.3556 17.0792 20.4823C17.2059 20.609 17.2771 20.7809 17.2771 20.9601V29.0398C17.2771 29.219 17.2059 29.3909 17.0792 29.5176C16.9525 29.6443 16.7807 29.7155 16.6015 29.7155Z" fill="#3048B5"/>
<path d="M9.31435 35.8055C9.13515 35.8055 8.96329 35.7343 8.83657 35.6076C8.70986 35.4809 8.63867 35.309 8.63867 35.1298V14.8704C8.63867 14.6912 8.70986 14.5193 8.83657 14.3926C8.96329 14.2659 9.13515 14.1947 9.31435 14.1947C9.49355 14.1947 9.66541 14.2659 9.79212 14.3926C9.91884 14.5193 9.99002 14.6912 9.99002 14.8704V35.1298C9.99002 35.309 9.91884 35.4809 9.79212 35.6076C9.66541 35.7343 9.49355 35.8055 9.31435 35.8055Z" fill="#3048B5"/>
</svg>
