<svg width="160" height="55" viewBox="0 0 160 55" fill="none" xmlns="http://www.w3.org/2000/svg">
<rect x="2" y="2" width="155.677" height="51" fill="white" stroke="#E51954" stroke-width="4"/>
<path d="M19.266 35C19.1047 35 18.9727 34.956 18.87 34.868C18.7673 34.7653 18.716 34.6333 18.716 34.472V20.15C18.716 19.9887 18.7673 19.8567 18.87 19.754C18.9727 19.6513 19.1047 19.6 19.266 19.6H21.004C21.312 19.6 21.532 19.7393 21.664 20.018L25.91 27.938L30.2 20.018C30.3467 19.7393 30.5667 19.6 30.86 19.6H32.576C32.7373 19.6 32.8693 19.6513 32.972 19.754C33.0747 19.8567 33.126 19.9887 33.126 20.15V34.472C33.126 34.6333 33.0747 34.7653 32.972 34.868C32.8693 34.956 32.7373 35 32.576 35H30.728C30.5813 35 30.4567 34.9487 30.354 34.846C30.2513 34.7433 30.2 34.6187 30.2 34.472V24.946L27.12 30.82C26.9293 31.1427 26.68 31.304 26.372 31.304H25.47C25.162 31.304 24.9127 31.1427 24.722 30.82L21.642 24.946V34.472C21.642 34.6187 21.5907 34.7433 21.488 34.846C21.4 34.9487 21.2753 35 21.114 35H19.266ZM38.352 39.18C38.2347 39.18 38.132 39.136 38.044 39.048C37.956 38.96 37.912 38.8573 37.912 38.74C37.912 38.608 37.9414 38.4907 38 38.388L39.716 34.318L35.492 24.352C35.4334 24.22 35.404 24.1173 35.404 24.044C35.4187 23.912 35.47 23.802 35.558 23.714C35.646 23.6113 35.756 23.56 35.888 23.56H37.67C37.9487 23.56 38.1467 23.6993 38.264 23.978L41.19 31.172L44.204 23.978C44.3214 23.6993 44.5194 23.56 44.798 23.56H46.558C46.6754 23.56 46.778 23.604 46.866 23.692C46.9687 23.78 47.02 23.8827 47.02 24C47.02 24.1027 46.9907 24.22 46.932 24.352L40.706 38.762C40.574 39.0407 40.3687 39.18 40.09 39.18H38.352ZM47.4184 35C47.3011 35 47.1911 34.956 47.0884 34.868C47.0004 34.78 46.9564 34.67 46.9564 34.538L47.0004 34.34L52.3024 20.15C52.4051 19.7833 52.6618 19.6 53.0724 19.6H55.4704C55.8518 19.6 56.1084 19.7833 56.2404 20.15L61.5424 34.34C61.5571 34.384 61.5644 34.45 61.5644 34.538C61.5644 34.67 61.5204 34.78 61.4324 34.868C61.3444 34.956 61.2418 35 61.1244 35H59.2104C59.0198 35 58.8731 34.956 58.7704 34.868C58.6678 34.78 58.6018 34.6847 58.5724 34.582L57.5384 31.898H51.0044L49.9704 34.582C49.8531 34.8607 49.6404 35 49.3324 35H47.4184ZM56.7684 29.368L54.2604 22.57L51.7744 29.368H56.7684ZM63.8823 35C63.7357 35 63.611 34.9487 63.5083 34.846C63.4057 34.7433 63.3543 34.6187 63.3543 34.472V24.11C63.3543 23.9633 63.4057 23.8387 63.5083 23.736C63.611 23.6187 63.7357 23.56 63.8823 23.56H65.6643C65.8257 23.56 65.9577 23.6113 66.0603 23.714C66.163 23.8167 66.2143 23.9487 66.2143 24.11V25.012C66.5663 24.5427 67.0063 24.1833 67.5343 23.934C68.077 23.6847 68.693 23.56 69.3823 23.56H70.2843C70.4457 23.56 70.5703 23.6113 70.6583 23.714C70.761 23.802 70.8123 23.9267 70.8123 24.088V25.672C70.8123 25.8187 70.761 25.9433 70.6583 26.046C70.5703 26.1487 70.4457 26.2 70.2843 26.2H68.5683C67.879 26.2 67.3363 26.398 66.9403 26.794C66.5443 27.19 66.3463 27.7327 66.3463 28.422V34.472C66.3463 34.6187 66.295 34.7433 66.1923 34.846C66.0897 34.9487 65.9577 35 65.7963 35H63.8823ZM77.6982 35C76.3635 35 75.3588 34.6553 74.6842 33.966C74.0242 33.262 73.6942 32.2353 73.6942 30.886V25.892H71.9562C71.8095 25.892 71.6848 25.8407 71.5822 25.738C71.4795 25.6207 71.4282 25.4887 71.4282 25.342V24.088C71.4282 23.9413 71.4795 23.8167 71.5822 23.714C71.6848 23.6113 71.8095 23.56 71.9562 23.56H73.6942V19.908C73.6942 19.7467 73.7455 19.622 73.8482 19.534C73.9508 19.4313 74.0755 19.38 74.2222 19.38H76.0042C76.1655 19.38 76.2902 19.4313 76.3782 19.534C76.4808 19.622 76.5322 19.7467 76.5322 19.908V23.56H79.2822C79.4435 23.56 79.5682 23.6113 79.6562 23.714C79.7588 23.802 79.8102 23.9267 79.8102 24.088V25.342C79.8102 25.5033 79.7588 25.6353 79.6562 25.738C79.5535 25.8407 79.4288 25.892 79.2822 25.892H76.5322V30.666C76.5322 31.2967 76.6422 31.7733 76.8622 32.096C77.0822 32.4187 77.4488 32.58 77.9622 32.58H79.4802C79.6268 32.58 79.7515 32.6313 79.8542 32.734C79.9568 32.8367 80.0082 32.9613 80.0082 33.108V34.472C80.0082 34.6187 79.9568 34.7433 79.8542 34.846C79.7662 34.9487 79.6415 35 79.4802 35H77.6982ZM87.5698 35.22C86.2645 35.22 85.1425 35.022 84.2038 34.626C83.2651 34.23 82.5538 33.7093 82.0698 33.064C81.5858 32.4187 81.3291 31.722 81.2998 30.974C81.2998 30.842 81.3438 30.732 81.4318 30.644C81.5198 30.556 81.6298 30.512 81.7618 30.512H83.7198C83.8958 30.512 84.0278 30.5487 84.1158 30.622C84.2185 30.6807 84.3138 30.7833 84.4018 30.93C84.5485 31.4287 84.8858 31.8467 85.4138 32.184C85.9418 32.5213 86.6605 32.69 87.5698 32.69C88.6111 32.69 89.3958 32.5213 89.9238 32.184C90.4518 31.832 90.7158 31.348 90.7158 30.732C90.7158 30.3213 90.5765 29.984 90.2978 29.72C90.0338 29.456 89.6305 29.2287 89.0878 29.038C88.5598 28.8473 87.7678 28.6127 86.7118 28.334C84.9811 27.9233 83.7125 27.3807 82.9058 26.706C82.1138 26.0167 81.7178 25.0413 81.7178 23.78C81.7178 22.9293 81.9451 22.174 82.3998 21.514C82.8691 20.854 83.5365 20.3333 84.4018 19.952C85.2818 19.5707 86.3011 19.38 87.4598 19.38C88.6625 19.38 89.7038 19.5927 90.5838 20.018C91.4638 20.4433 92.1311 20.9787 92.5858 21.624C93.0551 22.2547 93.3045 22.8853 93.3338 23.516C93.3338 23.648 93.2898 23.758 93.2018 23.846C93.1138 23.934 93.0038 23.978 92.8718 23.978H90.8258C90.5178 23.978 90.3051 23.8387 90.1878 23.56C90.0998 23.0907 89.8065 22.702 89.3078 22.394C88.8091 22.0713 88.1931 21.91 87.4598 21.91C86.6385 21.91 85.9931 22.064 85.5238 22.372C85.0545 22.68 84.8198 23.1273 84.8198 23.714C84.8198 24.1247 84.9371 24.462 85.1718 24.726C85.4065 24.99 85.7731 25.2247 86.2718 25.43C86.7851 25.6353 87.5185 25.8627 88.4718 26.112C89.7625 26.4053 90.7891 26.7353 91.5518 27.102C92.3291 27.4687 92.9011 27.9307 93.2678 28.488C93.6345 29.0453 93.8178 29.7567 93.8178 30.622C93.8178 31.5607 93.5538 32.382 93.0258 33.086C92.5125 33.7753 91.7791 34.3033 90.8258 34.67C89.8871 35.0367 88.8018 35.22 87.5698 35.22ZM101.245 35C99.9104 35 98.9057 34.6553 98.231 33.966C97.571 33.262 97.241 32.2353 97.241 30.886V25.892H95.503C95.3564 25.892 95.2317 25.8407 95.129 25.738C95.0264 25.6207 94.975 25.4887 94.975 25.342V24.088C94.975 23.9413 95.0264 23.8167 95.129 23.714C95.2317 23.6113 95.3564 23.56 95.503 23.56H97.241V19.908C97.241 19.7467 97.2924 19.622 97.395 19.534C97.4977 19.4313 97.6224 19.38 97.769 19.38H99.551C99.7124 19.38 99.837 19.4313 99.925 19.534C100.028 19.622 100.079 19.7467 100.079 19.908V23.56H102.829C102.99 23.56 103.115 23.6113 103.203 23.714C103.306 23.802 103.357 23.9267 103.357 24.088V25.342C103.357 25.5033 103.306 25.6353 103.203 25.738C103.1 25.8407 102.976 25.892 102.829 25.892H100.079V30.666C100.079 31.2967 100.189 31.7733 100.409 32.096C100.629 32.4187 100.996 32.58 101.509 32.58H103.027C103.174 32.58 103.298 32.6313 103.401 32.734C103.504 32.8367 103.555 32.9613 103.555 33.108V34.472C103.555 34.6187 103.504 34.7433 103.401 34.846C103.313 34.9487 103.188 35 103.027 35H101.245ZM110.567 35.22C108.851 35.22 107.523 34.78 106.585 33.9C105.646 33.0053 105.14 31.788 105.067 30.248L105.045 29.28L105.067 28.312C105.14 26.7867 105.653 25.5767 106.607 24.682C107.56 23.7873 108.88 23.34 110.567 23.34C112.253 23.34 113.573 23.7873 114.527 24.682C115.48 25.5767 115.993 26.7867 116.067 28.312C116.081 28.488 116.089 28.8107 116.089 29.28C116.089 29.7493 116.081 30.072 116.067 30.248C115.993 31.788 115.487 33.0053 114.549 33.9C113.61 34.78 112.283 35.22 110.567 35.22ZM110.567 33.042C111.344 33.042 111.945 32.8 112.371 32.316C112.796 31.8173 113.031 31.0913 113.075 30.138C113.089 29.9913 113.097 29.7053 113.097 29.28C113.097 28.8547 113.089 28.5687 113.075 28.422C113.031 27.4687 112.796 26.75 112.371 26.266C111.945 25.7673 111.344 25.518 110.567 25.518C109.789 25.518 109.188 25.7673 108.763 26.266C108.337 26.75 108.103 27.4687 108.059 28.422L108.037 29.28L108.059 30.138C108.103 31.0913 108.337 31.8173 108.763 32.316C109.188 32.8 109.789 33.042 110.567 33.042ZM123.476 35.22C121.863 35.22 120.572 34.7727 119.604 33.878C118.651 32.9833 118.145 31.744 118.086 30.16L118.064 29.28L118.086 28.4C118.145 26.816 118.651 25.5767 119.604 24.682C120.572 23.7873 121.863 23.34 123.476 23.34C124.62 23.34 125.588 23.5453 126.38 23.956C127.187 24.3667 127.781 24.8727 128.162 25.474C128.558 26.0607 128.771 26.618 128.8 27.146C128.815 27.2927 128.764 27.4173 128.646 27.52C128.544 27.6227 128.419 27.674 128.272 27.674H126.336C126.19 27.674 126.072 27.6447 125.984 27.586C125.911 27.5127 125.838 27.3953 125.764 27.234C125.544 26.662 125.251 26.2513 124.884 26.002C124.532 25.7527 124.078 25.628 123.52 25.628C122.772 25.628 122.186 25.87 121.76 26.354C121.335 26.8233 121.108 27.542 121.078 28.51L121.056 29.324L121.078 30.05C121.137 31.9713 121.951 32.932 123.52 32.932C124.092 32.932 124.554 32.8073 124.906 32.558C125.258 32.3087 125.544 31.898 125.764 31.326C125.838 31.1647 125.911 31.0547 125.984 30.996C126.072 30.9227 126.19 30.886 126.336 30.886H128.272C128.419 30.886 128.544 30.9373 128.646 31.04C128.764 31.1427 128.815 31.2673 128.8 31.414C128.771 31.9273 128.566 32.4773 128.184 33.064C127.803 33.6507 127.216 34.1567 126.424 34.582C125.632 35.0073 124.65 35.22 123.476 35.22ZM131.645 35C131.498 35 131.373 34.9487 131.271 34.846C131.168 34.7433 131.117 34.6187 131.117 34.472V19.908C131.117 19.7467 131.168 19.622 131.271 19.534C131.373 19.4313 131.498 19.38 131.645 19.38H133.427C133.588 19.38 133.713 19.4313 133.801 19.534C133.903 19.622 133.955 19.7467 133.955 19.908V27.432L137.651 23.934C137.695 23.9047 137.768 23.846 137.871 23.758C137.959 23.6847 138.047 23.6333 138.135 23.604C138.223 23.5747 138.333 23.56 138.465 23.56H140.511C140.657 23.56 140.775 23.604 140.863 23.692C140.951 23.78 140.995 23.8973 140.995 24.044C140.995 24.176 140.921 24.308 140.775 24.44L136.243 28.686L141.325 34.142C141.471 34.2887 141.545 34.4133 141.545 34.516C141.545 34.6627 141.493 34.78 141.391 34.868C141.303 34.956 141.193 35 141.061 35H138.971C138.765 35 138.611 34.978 138.509 34.934C138.421 34.8753 138.303 34.7727 138.157 34.626L133.955 30.204V34.472C133.955 34.6187 133.903 34.7433 133.801 34.846C133.713 34.9487 133.588 35 133.427 35H131.645Z" fill="#222222"/>
</svg>
