<svg width="48" height="48" viewBox="0 0 48 48" fill="none" xmlns="http://www.w3.org/2000/svg">
<rect width="48" height="48" fill="#E5E5E5"/>
<g clip-path="url(#clip0)">
<rect width="1440" height="1024" transform="translate(-327 -347)" fill="#FBFBFB"/>
<rect x="-20.5" y="-20.5" width="502" height="89" rx="4.5" stroke="#E9EAEF"/>
<path d="M39.0471 42.0338C38.9093 42.0338 38.7747 41.9918 38.6615 41.9132C38.5483 41.8346 38.4619 41.7233 38.4137 41.5942C38.3655 41.4651 38.358 41.3244 38.3921 41.1909C38.4262 41.0574 38.5003 40.9375 38.6045 40.8473C39.1342 40.3885 39.593 39.9567 40.0052 39.5263C40.1301 39.4015 40.2988 39.3306 40.4754 39.3287C40.6519 39.3267 40.8222 39.394 40.9498 39.516C41.0774 39.638 41.1521 39.8051 41.1581 39.9816C41.164 40.158 41.1006 40.3298 40.9815 40.4601C40.5396 40.9216 40.0511 41.3831 39.4889 41.8689C39.3662 41.9752 39.2094 42.0337 39.0471 42.0338Z" fill="#3048B5"/>
<path d="M24 47.6486C19.0783 47.646 14.2802 46.107 10.2752 43.2464C6.2702 40.3859 3.25807 36.3464 1.6591 31.6917C0.0601259 27.037 -0.0459137 21.9993 1.35577 17.2814C2.75746 12.5635 5.59695 8.40091 9.47804 5.37434C13.3591 2.34778 18.0882 0.608258 23.0054 0.398498C27.9226 0.188738 32.7827 1.5192 36.9074 4.20425C41.0321 6.8893 44.2158 10.795 46.0142 15.3763C47.8126 19.9577 48.1359 24.9862 46.9392 29.7601C46.9179 29.8467 46.8798 29.9281 46.8269 29.9999C46.774 30.0716 46.7075 30.1322 46.6311 30.1781C46.5547 30.224 46.47 30.2543 46.3819 30.2674C46.2937 30.2804 46.2039 30.2759 46.1175 30.2541C46.0311 30.2322 45.9498 30.1935 45.8785 30.1402C45.8071 30.0868 45.747 30.0199 45.7016 29.9432C45.6562 29.8665 45.6264 29.7816 45.614 29.6934C45.6015 29.6051 45.6066 29.5153 45.629 29.429C46.8691 24.4645 46.3615 19.2242 44.1915 14.59C42.0215 9.95575 38.3217 6.21028 33.7144 3.9837C29.107 1.75712 23.8734 1.18531 18.894 2.36447C13.9146 3.54363 9.49326 6.40179 6.37378 10.4581C3.2543 14.5145 1.62707 19.5214 1.76584 24.6367C1.90462 29.7519 3.80093 34.6633 7.13575 38.5445C10.4706 42.4257 15.0404 45.04 20.0764 45.9474C25.1124 46.8549 30.3073 46.0001 34.7872 43.527C34.8647 43.4839 34.9501 43.4566 35.0382 43.4465C35.1264 43.4364 35.2157 43.4437 35.301 43.4681C35.3864 43.4925 35.4661 43.5335 35.5356 43.5887C35.605 43.6439 35.663 43.7123 35.7061 43.7899C35.7491 43.8675 35.7765 43.9528 35.7866 44.041C35.7967 44.1291 35.7894 44.2184 35.765 44.3038C35.7406 44.3891 35.6996 44.4688 35.6444 44.5383C35.5892 44.6078 35.5208 44.6657 35.4432 44.7088C31.9389 46.6408 28.0017 47.6523 24 47.6486Z" fill="#3048B5"/>
<path d="M43.4379 36.9256C43.3172 36.9255 43.1987 36.8931 43.0948 36.8317C42.9908 36.7703 42.9052 36.6822 42.8469 36.5766C42.7885 36.4709 42.7596 36.3515 42.763 36.2309C42.7664 36.1102 42.802 35.9927 42.8662 35.8905C43.2541 35.2729 43.5784 34.7047 43.8561 34.1547C43.8943 34.0727 43.9487 33.9992 44.0158 33.9386C44.083 33.878 44.1617 33.8315 44.2471 33.8018C44.3326 33.7722 44.4232 33.76 44.5135 33.766C44.6038 33.772 44.6919 33.7961 44.7727 33.8369C44.8535 33.8776 44.9253 33.9342 44.9838 34.0032C45.0423 34.0722 45.0864 34.1522 45.1134 34.2386C45.1404 34.3249 45.1498 34.4158 45.141 34.5059C45.1322 34.5959 45.1054 34.6833 45.0622 34.7628C44.7649 35.3506 44.421 35.954 44.0102 36.6081C43.9495 36.7051 43.8651 36.7852 43.765 36.8408C43.6649 36.8963 43.5524 36.9255 43.4379 36.9256Z" fill="#3048B5"/>
<path d="M41.5675 24.6757C41.3883 24.6757 41.2164 24.6045 41.0897 24.4778C40.963 24.3511 40.8918 24.1792 40.8918 24C40.8868 19.5215 39.1055 15.2279 35.9387 12.0612C32.772 8.89442 28.4784 7.11313 23.9999 7.10813C23.8207 7.10813 23.6488 7.03694 23.5221 6.91023C23.3954 6.78351 23.3242 6.61165 23.3242 6.43245C23.3242 6.25325 23.3954 6.08139 23.5221 5.95468C23.6488 5.82796 23.8207 5.75677 23.9999 5.75677C28.8367 5.76214 33.4738 7.68591 36.8939 11.106C40.314 14.5261 42.2378 19.1633 42.2431 24C42.2431 24.1792 42.1719 24.3511 42.0452 24.4778C41.9185 24.6045 41.7467 24.6757 41.5675 24.6757Z" fill="#3048B5"/>
<path d="M24.0001 42.2433C19.1633 42.2379 14.5262 40.3141 11.1061 36.894C7.68597 33.4739 5.7622 28.8368 5.75684 24C5.75684 23.8208 5.82802 23.649 5.95474 23.5222C6.08145 23.3955 6.25331 23.3243 6.43251 23.3243C6.61171 23.3243 6.78357 23.3955 6.91029 23.5222C7.037 23.649 7.10819 23.8208 7.10819 24C7.11319 28.4785 8.89448 32.7721 12.0612 35.9389C15.228 39.1056 19.5216 40.8869 24.0001 40.8919C24.1793 40.8919 24.3511 40.9631 24.4779 41.0898C24.6046 41.2165 24.6758 41.3884 24.6758 41.5676C24.6758 41.7468 24.6046 41.9186 24.4779 42.0454C24.3511 42.1721 24.1793 42.2433 24.0001 42.2433Z" fill="#3048B5"/>
<path d="M35.4864 24.6757C35.3072 24.6757 35.1353 24.6045 35.0086 24.4778C34.8819 24.3511 34.8107 24.1792 34.8107 24C34.8073 21.1338 33.6672 18.386 31.6405 16.3593C29.6139 14.3327 26.8661 13.1926 23.9999 13.1892C23.8207 13.1892 23.6488 13.118 23.5221 12.9913C23.3954 12.8646 23.3242 12.6927 23.3242 12.5135C23.3242 12.3343 23.3954 12.1624 23.5221 12.0357C23.6488 11.909 23.8207 11.8378 23.9999 11.8378C27.2243 11.8416 30.3157 13.1242 32.5957 15.4042C34.8757 17.6842 36.1583 20.7755 36.1621 24C36.1621 24.1792 36.0909 24.3511 35.9641 24.4778C35.8374 24.6045 35.6656 24.6757 35.4864 24.6757Z" fill="#3048B5"/>
<path d="M24.0001 36.1622C20.7756 36.1584 17.6843 34.8758 15.4043 32.5958C13.1242 30.3158 11.8416 27.2245 11.8379 24C11.8379 23.8208 11.9091 23.649 12.0358 23.5222C12.1625 23.3955 12.3344 23.3243 12.5136 23.3243C12.6928 23.3243 12.8646 23.3955 12.9913 23.5222C13.1181 23.649 13.1892 23.8208 13.1892 24C13.1926 26.8662 14.3327 29.614 16.3594 31.6407C18.3861 33.6673 21.1339 34.8074 24.0001 34.8108C24.1793 34.8108 24.3511 34.882 24.4778 35.0087C24.6045 35.1354 24.6757 35.3073 24.6757 35.4865C24.6757 35.6657 24.6045 35.8376 24.4778 35.9643C24.3511 36.091 24.1793 36.1622 24.0001 36.1622Z" fill="#3048B5"/>
<path d="M24 30.081C22.7973 30.081 21.6216 29.7244 20.6216 29.0562C19.6215 28.388 18.8421 27.4383 18.3818 26.3271C17.9216 25.2159 17.8012 23.9932 18.0358 22.8136C18.2704 21.634 18.8496 20.5504 19.7001 19.7C20.5505 18.8495 21.6341 18.2704 22.8137 18.0357C23.9933 17.8011 25.216 17.9215 26.3272 18.3818C27.4383 18.842 28.3881 19.6215 29.0563 20.6215C29.7245 21.6215 30.0811 22.7972 30.0811 24C30.0793 25.6122 29.4381 27.1579 28.298 28.298C27.158 29.438 25.6123 30.0793 24 30.081ZM24 19.2702C23.0646 19.2702 22.1501 19.5476 21.3723 20.0673C20.5945 20.5871 19.9883 21.3257 19.6303 22.19C19.2723 23.0542 19.1787 24.0052 19.3612 24.9227C19.5437 25.8402 19.9941 26.6829 20.6556 27.3444C21.3171 28.0059 22.1598 28.4563 23.0773 28.6388C23.9948 28.8213 24.9458 28.7276 25.81 28.3697C26.6743 28.0117 27.4129 27.4055 27.9327 26.6277C28.4524 25.8499 28.7298 24.9354 28.7298 24C28.7283 22.746 28.2296 21.5438 27.3429 20.6571C26.4562 19.7704 25.254 19.2717 24 19.2702Z" fill="#3048B5"/>
</g>
<defs>
<clipPath id="clip0">
<rect width="1440" height="1024" fill="white" transform="translate(-327 -347)"/>
</clipPath>
</defs>
</svg>
