<svg width="64" height="64" viewBox="0 0 64 64" fill="none" xmlns="http://www.w3.org/2000/svg">
<g clip-path="url(#clip0)">
<path d="M50.2398 18.6903C48.0148 7.87752 37.4455 0.915756 26.6327 3.14073C17.3738 5.04602 10.7156 13.1767 10.6732 22.6293C10.6732 23.0797 10.6918 23.5408 10.7318 24.0285C4.1449 24.7258 -0.629616 30.6306 0.0676099 37.2175C0.713865 43.3227 5.86629 47.9542 12.0057 47.9482H13.4049C13.3729 47.5059 13.3383 47.0661 13.3383 46.6156C13.3383 37.0482 21.0942 29.2921 30.6617 29.2921C40.2292 29.2921 47.9851 37.0482 47.9851 46.6156C47.9851 47.066 47.9504 47.5057 47.9185 47.9482H49.3177C57.4043 47.9703 63.9778 41.4327 63.9999 33.346C64.0211 25.5865 57.9853 19.1578 50.2398 18.6903Z" fill="#9FC6FF"/>
<path d="M30.6617 61.2735C38.7572 61.2735 45.3199 54.7108 45.3199 46.6153C45.3199 38.5197 38.7572 31.957 30.6617 31.957C22.5661 31.957 16.0034 38.5197 16.0034 46.6153C16.0034 54.7108 22.5661 61.2735 30.6617 61.2735Z" fill="#3048B5"/>
<path d="M30.6617 55.9432C29.9258 55.9432 29.3291 55.3465 29.3291 54.6105V38.6197C29.3291 37.8838 29.9258 37.2871 30.6617 37.2871C31.3977 37.2871 31.9943 37.8838 31.9943 38.6197V54.6105C31.9942 55.3465 31.3977 55.9432 30.6617 55.9432Z" fill="#FAFAFA"/>
<path d="M35.992 45.283C35.6383 45.2836 35.2989 45.1437 35.0485 44.8939L30.6617 40.5044L26.2748 44.8939C25.7455 45.4052 24.9018 45.3904 24.3905 44.8611C23.8916 44.3447 23.8916 43.526 24.3905 43.0096L29.7208 37.6792C30.2411 37.159 31.0847 37.159 31.6051 37.6792L36.9354 43.0096C37.455 43.5308 37.4538 44.3745 36.9324 44.8941C36.6828 45.1431 36.3447 45.2829 35.992 45.283Z" fill="#FAFAFA"/>
</g>
<defs>
<clipPath id="clip0">
<rect width="64" height="64" fill="white"/>
</clipPath>
</defs>
</svg>
